Coordinates
version=1
nRows=24
nColumns=22
inDegrees=yes

Units are S.I. units (second, meters, Newtons, ...)
If the header above contains a line with 'inDegrees', this indicates whether rotational values are in degrees (yes) or radians (no).

endheader
time	pelvis_tilt	pelvis_list	pelvis_rotation	pelvis_tx	pelvis_ty	pelvis_tz	hip_flexion_r	hip_adduction_r	hip_rotation_r	knee_angle_r	ankle_angle_r	subtalar_angle_r	hip_flexion_l	hip_adduction_l	hip_rotation_l	knee_angle_l	ankle_angle_l	subtalar_angle_l	lumbar_extension	lumbar_bending	lumbar_rotation
      3.09000000	     -3.55017279	     -2.67254400	      4.36317777	      0.06142242	      1.00655235	      0.29316095	     -2.67312574	      3.96467303	    -12.05517097	     -9.29271860	     12.26380303	      1.33533566	     23.80114003	     -9.54836514	    -15.56644265	    -15.89501068	      7.99225866	      1.56593592	     -4.14916749	     -1.42419696	      1.82245581
      3.10000000	     -3.45491951	     -2.83162466	      4.31284059	      0.05434414	      1.00738872	      0.29448613	     -2.40919897	      4.20997876	    -12.03150434	     -9.10069840	     11.91761310	      1.09889704	     23.89713222	     -9.92572356	    -15.34375826	    -17.26952290	      7.89327748	      1.61619329	     -4.31157719	     -1.20486924	      1.79510300
      3.11000000	     -3.36733430	     -2.99122353	      4.26886547	      0.04733528	      1.00825864	      0.29567771	     -2.11215791	      4.43688264	    -12.02123688	     -8.96558650	     11.55936225	      0.88763107	     23.97373752	    -10.28805839	    -15.02485489	    -18.72786604	      7.77369211	      1.73380687	     -4.45486373	     -0.98541551	      1.77689861
      3.12000000	     -3.22782060	     -3.14127819	      4.21946182	      0.04038986	      1.00927845	      0.29674724	     -1.85563307	      4.64201298	    -11.96369058	     -8.86865727	     11.16093968	      0.82534778	     23.94385855	    -10.63013044	    -14.64087567	    -20.23441545	      7.65850396	      1.83722472	     -4.65371651	     -0.76830282	      1.76027275
      3.13000000	     -3.12220558	     -3.27236724	      4.17991278	      0.03350445	      1.01029435	      0.29768748	     -1.54032151	      4.81051671	    -11.92636334	     -8.82490383	     10.76180154	      0.75441479	     23.92158129	    -10.94112958	    -14.23581713	    -21.82751034	      7.54393436	      1.97856265	     -4.79552075	     -0.57488802	      1.73064460
      3.14000000	     -3.03146012	     -3.37148152	      4.14134276	      0.02670019	      1.01134018	      0.29852983	     -1.19037490	      4.93386469	    -11.89095725	     -8.83198616	     10.36280257	      0.69187245	     23.87307589	    -11.21472642	    -13.83336074	    -23.49435577	      7.43537387	      2.11576102	     -4.90010245	     -0.42328386	      1.69244948
      3.15000000	     -2.96057711	     -3.43185574	      4.10108558	      0.01994630	      1.01239541	      0.29926717	     -0.79787964	      5.00450340	    -11.86218819	     -8.89104572	      9.97079561	      0.62356551	     23.80732197	    -11.44397418	    -13.43650862	    -25.24021436	      7.34091401	      2.22323054	     -4.96564953	     -0.31568881	      1.64106430
      3.16000000	     -2.89771214	     -3.44739141	      4.05708254	      0.01324625	      1.01346668	      0.29991608	     -0.37828695	      5.01882264	    -11.83012107	     -9.00030163	      9.59100226	      0.55333267	     23.70909754	    -11.62344277	    -13.03954574	    -27.06161596	      7.26395286	      2.26982954	     -5.00813441	     -0.26239882	      1.57344174
      3.17000000	     -2.85179941	     -3.42712581	      4.01181274	      0.00659604	      1.01451334	      0.30047668	      0.08127459	      4.98683731	    -11.80664719	     -9.16299827	      9.23017179	      0.46452475	     23.59741594	    -11.75816263	    -12.62916676	    -28.96609799	      7.21338325	      2.26331327	     -5.01607383	     -0.25324605	      1.49106483
      3.18000000	     -2.82197494	     -3.36971766	      3.96150526	     -0.00002383	      1.01551124	      0.30093923	      0.58705257	      4.90383626	    -11.78657223	     -9.39311583	      8.89443836	      0.35090494	     23.47434720	    -11.84234411	    -12.19554706	    -30.95257061	      7.19535963	      2.21345633	     -4.99651612	     -0.28585349	      1.39245327
      3.19000000	     -2.80114428	     -3.27977096	      3.90341735	     -0.00660900	      1.01644992	      0.30129774	      1.13116561	      4.77485807	    -11.75941514	     -9.68959634	      8.58771522	      0.21913576	     23.33123135	    -11.87481580	    -11.72992802	    -33.01002056	      7.20854894	      2.13411122	     -4.95940759	     -0.35420788	      1.28558959
      3.20000000	     -2.78941645	     -3.17240119	      3.83950122	     -0.01316279	      1.01730089	      0.30156520	      1.71552331	      4.61681286	    -11.73034248	    -10.05343431	      8.31517903	      0.07404365	     23.17350172	    -11.86796168	    -11.22788597	    -35.13141602	      7.24579384	      2.03876774	     -4.90674415	     -0.44439446	      1.17062530
      3.21000000	     -2.78711901	     -3.04931847	      3.76458078	     -0.01969824	      1.01804998	      0.30172323	      2.34261274	      4.42911828	    -11.68118664	    -10.48647563	      8.07341568	     -0.08047482	     22.99518337	    -11.81761598	    -10.69730713	    -37.29212377	      7.29724907	      1.93982407	     -4.84227806	     -0.54956224	      1.05317414
      3.22000000	     -2.79544919	     -2.92049428	      3.67466719	     -0.02621244	      1.01868238	      0.30177704	      3.01235780	      4.22323420	    -11.61264688	    -10.98369051	      7.86229746	     -0.24088544	     22.79286207	    -11.73403092	    -10.15128035	    -39.46841274	      7.35168271	      1.84761864	     -4.76521447	     -0.65768703	      0.93957312
      3.23000000	     -2.80737425	     -2.79051082	      3.56961839	     -0.03271610	      1.01919966	      0.30174603	      3.71918791	      4.00665345	    -11.52027654	    -11.54546484	      7.68130518	     -0.39778671	     22.55308999	    -11.62504470	     -9.60966278	    -41.63183399	      7.40064419	      1.77206286	     -4.68729146	     -0.76849874	      0.83062397
      3.24000000	     -2.83938731	     -2.66671128	      3.45153558	     -0.03921498	      1.01957336	      0.30159532	      4.47965254	      3.78419961	    -11.40532023	    -12.16695991	      7.52662741	     -0.56076672	     22.28827216	    -11.49501732	     -9.08139388	    -43.75300097	      7.43180444	      1.71806829	     -4.58805453	     -0.86543818	      0.72978319
      3.25000000	     -2.86930778	     -2.54442859	      3.31609410	     -0.04569600	      1.01983892	      0.30136114	      5.26559199	      3.55701739	    -11.26580684	    -12.84131847	      7.40740085	     -0.71054628	     21.96059315	    -11.35038648	     -8.59776884	    -45.79549529	      7.43441984	      1.68985413	     -4.49359825	     -0.95818352	      0.63202606
      3.26000000	     -2.91326848	     -2.43129650	      3.16561262	     -0.05217381	      1.01997614	      0.30104479	      6.09007618	      3.33575117	    -11.09779725	    -13.55483234	      7.29747769	     -0.85570966	     21.58484201	    -11.19814904	     -8.15520887	    -47.73405339	      7.39716726	      1.69252232	     -4.38474559	     -1.03979952	      0.54757887
      3.27000000	     -2.95911697	     -2.32359667	      3.00500545	     -0.05864208	      1.02000505	      0.30064748	      6.93455935	      3.11906798	    -10.90839156	    -14.29895239	      7.21506054	     -0.98634311	     21.14040791	    -11.04353343	     -7.77429756	    -49.53962790	      7.31116170	      1.73779253	     -4.27469352	     -1.11297260	      0.45986410
      3.28000000	     -3.00828411	     -2.22571541	      2.83899008	     -0.06510115	      1.01992695	      0.30016851	      7.79126239	      2.91461744	    -10.69819174	    -15.05475205	      7.14156042	     -1.10036869	     20.62755941	    -10.89212877	     -7.44992780	    -51.19165299	      7.17694893	      1.84715752	     -4.15866743	     -1.17328901	      0.36865879
      3.29000000	     -3.05947992	     -2.13571701	      2.67069422	     -0.07155445	      1.01974404	      0.29961756	      8.65220194	      2.72163289	    -10.47701397	    -15.81055252	      7.08413118	     -1.19760024	     20.04356581	    -10.74577248	     -7.18142144	    -52.67199711	      6.98751667	      2.04078143	     -4.03857966	     -1.22422062	      0.26975229
      3.30000000	     -3.10569445	     -2.05438326	      2.51020552	     -0.07799361	      1.01947342	      0.29897985	      9.49842885	      2.54172400	    -10.24683628	    -16.54797161	      7.03082727	     -1.27831253	     19.38218165	    -10.60272183	     -6.95732113	    -53.96486991	      6.74310770	      2.31913781	     -3.91830018	     -1.26453713	      0.15983991
      3.31000000	     -3.14786598	     -1.98132793	      2.36004136	     -0.08442425	      1.01911684	      0.29825926	     10.32510127	      2.37325185	    -10.02081584	    -17.25622998	      6.96693305	     -1.34816578	     18.64773594	    -10.46228118	     -6.77141684	    -55.06038302	      6.45451192	      2.67725443	     -3.79755718	     -1.29553270	      0.03340228
      3.32000000	     -3.18186465	     -1.91708658	      2.22791895	     -0.09083506	      1.01868717	      0.29744017	     11.11934600	      2.21340503	     -9.81196932	    -17.92404045	      6.88326354	     -1.40945538	     17.84063205	    -10.32423567	     -6.61793885	    -55.95108110	      6.13477850	      3.10028435	     -3.67685361	     -1.31588485	     -0.11172624
